HIERARCHY
ROOT Hips
{
	OFFSET 0.000000 0.000000 0.000000
	CHANNELS 6 Xposition Yposition Zposition Zrotation Yrotation Xrotation 
	JOINT LHipJoint
	{
		OFFSET 0.000000 0.000000 0.000000
		CHANNELS 3 Zrotation Yrotation Xrotation
		JOINT LeftUpLeg
		{
			OFFSET 1.363060 -1.794630 0.839290
			CHANNELS 3 Zrotation Yrotation Xrotation
			JOINT LeftLeg
			{
				OFFSET 2.448110 -6.726130 0.000000
				CHANNELS 3 Zrotation Yrotation Xrotation
				JOINT LeftFoot
				{
					OFFSET 2.562200 -7.039590 0.000000
					CHANNELS 3 Zrotation Yrotation Xrotation
					JOINT LeftToeBase
					{
						OFFSET 0.157640 -0.433110 2.322550
						CHANNELS 3 Zrotation Yrotation Xrotation
						End Site
						{
							OFFSET 0.000000 0.000000 0.000000
						}
					}
				}
			}
		}
	}
	JOINT RHipJoint
	{
		OFFSET 0.000000 0.000000 0.000000
		CHANNELS 3 Zrotation Yrotation Xrotation
		JOINT RightUpLeg
		{
			OFFSET -1.305520 -1.794630 0.839290
			CHANNELS 3 Zrotation Yrotation Xrotation
			JOINT RightLeg
			{
				OFFSET -2.542530 -6.985550 0.000000
				CHANNELS 3 Zrotation Yrotation Xrotation
				JOINT RightFoot
				{
					OFFSET -2.568260 -7.056230 0.000000
					CHANNELS 3 Zrotation Yrotation Xrotation
					JOINT RightToeBase
					{
						OFFSET -0.164730 -0.452590 2.363150
						CHANNELS 3 Zrotation Yrotation Xrotation
						End Site
						{
							OFFSET 0.000000 0.000000 0.000000
						}
					}
				}
			}
		}
	}
	JOINT LowerBack
	{
		OFFSET 0.000000 0.000000 0.000000
		CHANNELS 3 Zrotation Yrotation Xrotation
		JOINT Spine
		{
			OFFSET 0.028270 2.035590 -0.193380
			CHANNELS 3 Zrotation Yrotation Xrotation
			JOINT Spine1
			{
				OFFSET 0.056720 2.048850 -0.042750
				CHANNELS 3 Zrotation Yrotation Xrotation
				JOINT Neck
				{
					OFFSET 0.000000 0.000000 0.000000
					CHANNELS 3 Zrotation Yrotation Xrotation
					JOINT Neck1
					{
						OFFSET -0.054170 1.746240 0.172020
						CHANNELS 3 Zrotation Yrotation Xrotation
						JOINT Head
						{
							OFFSET 0.104070 1.761360 -0.123970
							CHANNELS 3 Zrotation Yrotation Xrotation
							End Site
							{
								OFFSET 0.000000 0.000000 0.000000
							}
						}
					}
				}
				JOINT LeftShoulder
				{
					OFFSET 0.000000 0.000000 0.000000
					CHANNELS 3 Zrotation Yrotation Xrotation
					JOINT LeftArm
					{
						OFFSET 3.362410 1.200890 -0.311210
						CHANNELS 3 Zrotation Yrotation Xrotation
						JOINT LeftForeArm
						{
							OFFSET 4.983000 -0.000000 -0.000000
							CHANNELS 3 Zrotation Yrotation Xrotation
							JOINT LeftHand
							{
								OFFSET 3.483560 -0.000000 -0.000000
								CHANNELS 3 Zrotation Yrotation Xrotation
								JOINT LeftFingerBase
								{
									OFFSET 0.000000 0.000000 0.000000
									CHANNELS 3 Zrotation Yrotation Xrotation
									JOINT LeftHandIndex1
									{
										OFFSET 0.715260 -0.000000 -0.000000
										CHANNELS 3 Zrotation Yrotation Xrotation
										End Site
										{
											OFFSET 0.000000 0.000000 0.000000
										}
									}
								}
								JOINT LThumb
								{
									OFFSET 0.000000 0.000000 0.000000
									CHANNELS 3 Zrotation Yrotation Xrotation
									End Site
									{
										OFFSET 0.000000 0.000000 0.000000
									}
								}
							}
						}
					}
				}
				JOINT RightShoulder
				{
					OFFSET 0.000000 0.000000 0.000000
					CHANNELS 3 Zrotation Yrotation Xrotation
					JOINT RightArm
					{
						OFFSET -3.136600 1.374050 -0.404650
						CHANNELS 3 Zrotation Yrotation Xrotation
						JOINT RightForeArm
						{
							OFFSET -5.241900 -0.000000 -0.000000
							CHANNELS 3 Zrotation Yrotation Xrotation
							JOINT RightHand
							{
								OFFSET -3.444170 -0.000000 -0.000000
								CHANNELS 3 Zrotation Yrotation Xrotation
								JOINT RightFingerBase
								{
									OFFSET 0.000000 0.000000 0.000000
									CHANNELS 3 Zrotation Yrotation Xrotation
									JOINT RightHandIndex1
									{
										OFFSET -0.622530 -0.000000 -0.000000
										CHANNELS 3 Zrotation Yrotation Xrotation
										End Site
										{
											OFFSET 0.000000 0.000000 0.000000
										}
									}
								}
								JOINT RThumb
								{
									OFFSET 0.000000 0.000000 0.000000
									CHANNELS 3 Zrotation Yrotation Xrotation
									End Site
									{
										OFFSET 0.000000 0.000000 0.000000
									}
								}
							}
						}
					}
				}
			}
		}
	}
}
MOTION
Frames: 7
Frame Time: 0.008333
-4.741566 17.963091 11.336523 168.655934 -56.722504 -171.203016 -2.611609 2.186778 3.590334 -20.250381 0.095285 3.556948 -0.599798 4.038145 13.959523 0.735596 -13.539776 6.066913 0.168300 -2.643000 -7.286400 0.205845 -1.056612 0.361273 11.281767 8.764631 -28.269971 -4.946656 -13.795773 42.235160 -0.444277 1.130729 2.352405 -0.339300 3.743200 -10.355400 -5.708852 -5.988169 8.245671 3.244971 -8.413922 0.991405 7.550201 -4.490875 -3.700545 -15.746126 -16.617163 8.210146 10.468633 -34.528124 24.305540 2.472800 -17.483900 15.074900 -6.046576 -1.384103 -0.939754 -83.943825 -10.764106 32.408449 18.016407 -24.813705 -4.859572 -1.131033 -2.874806 4.584430 17.297898 30.946135 10.389000 -7.125000 0.000000 0.000000 -18.343200 64.314900 -8.721700 5.363450 2.159774 -0.577212 82.067552 -3.794714 6.630678 -18.596915 26.967997 -4.684391 0.362025 0.027310 4.291404 -14.969338 4.808993 -1.298900 7.125000 0.000000 0.000000 8.487900 -25.056600 4.137600 
-4.656735 17.977797 11.381240 168.111764 -57.166925 -170.804245 -2.633731 2.145646 3.546086 -20.410050 -0.299478 3.192216 -0.573527 4.178642 14.331222 0.734937 -13.739096 6.326111 0.133200 -2.352100 -6.479800 0.175856 -1.061784 0.370641 10.718321 9.054280 -28.061220 -5.351801 -14.196592 43.835784 -0.451590 1.200390 2.177332 -0.207900 2.936000 -8.100600 -6.047757 -5.955253 8.252774 3.233800 -8.411013 1.045196 7.683284 -4.496751 -3.568106 -15.809661 -16.654209 8.228519 10.664996 -34.652660 24.317955 2.516300 -17.522300 15.156500 -6.088604 -1.369790 -0.934564 -84.084570 -10.624285 32.006954 17.549689 -24.183269 -4.599248 -1.212228 -2.705357 5.036507 18.029845 28.783613 10.220500 -7.125000 0.000000 0.000000 -15.450700 62.317800 -6.588600 5.382779 2.158848 -0.569435 81.926820 -3.550937 6.718987 -18.550898 26.903568 -4.653958 0.386138 0.000603 4.621938 -15.791194 5.422983 -1.557900 7.125000 0.000000 0.000000 7.825700 -24.382600 3.932200 
-4.573704 17.987600 11.425956 167.494284 -57.590590 -170.296665 -2.657932 2.105707 3.503210 -20.633209 -0.755803 2.908091 -0.564445 4.266193 14.552342 0.733552 -13.802303 6.463734 0.114800 -2.184900 -6.017000 0.144487 -1.067793 0.384915 10.174174 9.134840 -27.939457 -5.775125 -14.595409 45.476923 -0.508345 1.585841 2.086310 -0.211900 2.963300 -8.176600 -6.344028 -5.954502 8.290105 3.185611 -8.448860 1.023154 7.749753 -4.503357 -3.589930 -15.757797 -16.623902 8.343097 10.767764 -34.648129 24.323117 2.561900 -17.521500 15.146100 -6.122695 -1.344853 -0.938783 -84.067378 -10.193338 31.879556 17.124774 -23.609414 -4.371925 -1.292220 -2.342910 4.795106 19.472908 24.016053 9.484800 -7.125000 0.000000 0.000000 -10.501700 57.625500 -3.270200 5.392227 2.147906 -0.571205 81.830468 -3.533583 6.975615 -18.569552 26.921506 -4.657115 0.408878 -0.022474 4.775383 -16.578721 5.979209 -1.815200 7.125000 0.000000 0.000000 7.201700 -23.763500 3.717400 
-4.491173 17.994303 11.468072 167.493812 -58.033048 -170.248372 -2.680254 2.078088 3.474429 -20.449673 -1.010428 2.434793 -0.546732 4.370391 14.818901 0.745795 -14.076911 6.611079 0.099100 -2.030400 -5.589800 0.115693 -1.074914 0.396950 10.006821 9.373324 -27.757456 -6.206192 -14.970081 47.109959 -0.567260 2.005591 1.939549 -0.186600 2.782400 -7.673400 -6.273321 -5.974317 8.255332 3.202187 -8.469784 0.982579 7.724818 -4.502166 -3.645311 -15.759826 -16.609989 8.484674 10.863041 -34.689912 24.332551 2.603400 -17.548300 15.157900 -6.150062 -1.313007 -0.945955 -84.037950 -9.661543 31.722458 16.771919 -23.141143 -4.192626 -1.323485 -2.118759 4.677894 20.069172 21.095994 8.729700 -7.125000 0.000000 0.000000 -8.415500 54.563400 -1.987900 5.401342 2.137795 -0.572482 81.767956 -3.478242 6.923815 -18.677276 27.063302 -4.712129 0.402663 -0.019051 4.937067 -16.420439 5.881265 -1.766100 7.125000 0.000000 0.000000 7.327100 -23.874200 3.764300 
-4.408342 17.998805 11.507687 167.754203 -58.526555 -170.488647 -2.699261 2.061829 3.447831 -20.151282 -1.482683 2.061418 -0.522196 4.521296 15.203006 0.761952 -14.121858 6.657557 0.093800 -1.975400 -5.437700 0.087962 -1.085447 0.409507 10.004112 9.677926 -27.371938 -6.630799 -15.310633 48.682186 -0.610800 2.342360 2.050861 -0.071100 1.720000 -4.732500 -6.101979 -6.019551 8.267463 3.274178 -8.513259 0.994105 7.738164 -4.526180 -3.628100 -15.836149 -16.635237 8.397340 10.877289 -34.784393 24.471903 2.576100 -17.576900 15.289100 -6.187918 -1.286674 -0.947555 -84.136313 -9.286991 31.154656 16.367987 -22.593597 -3.982418 -1.351172 -2.090896 5.085374 20.024802 20.866272 8.629600 -7.125000 0.000000 0.000000 -8.350300 54.302000 -1.919000 5.414599 2.132395 -0.570695 81.680958 -3.328565 6.716326 -18.846495 27.289284 -4.800484 0.386534 -0.012512 5.125205 -15.956333 5.757284 -1.675000 7.125000 0.000000 0.000000 7.687800 -24.023500 3.926100 
-4.325511 17.996404 11.548502 167.976672 -59.022232 -170.751551 -2.717180 2.048469 3.417179 -19.909849 -2.119186 1.792899 -0.494384 4.697959 15.650761 0.778183 -13.891976 6.525105 0.108400 -2.123300 -5.846600 0.062440 -1.096348 0.424737 10.053797 9.824583 -26.902883 -7.046137 -15.624238 50.193189 -0.667553 2.775182 2.135406 -0.060900 1.591900 -4.379100 -5.916625 -6.057082 8.315519 3.328290 -8.544974 1.013159 7.712633 -4.543800 -3.628296 -15.931545 -16.627289 8.397008 10.997873 -34.818594 24.512052 2.615400 -17.588600 15.374400 -6.228439 -1.259208 -0.946438 -84.195034 -8.934009 30.578401 15.927854 -21.989547 -3.758399 -1.364022 -2.088016 5.534390 19.705238 20.938665 8.514200 -7.125000 0.000000 0.000000 -8.714100 54.320000 -2.007400 5.429345 2.130245 -0.567669 81.608788 -3.228531 6.628766 -18.941940 27.413255 -4.847963 0.385659 -0.014233 5.062424 -15.949032 5.860258 -1.704700 7.125000 0.000000 0.000000 7.689500 -23.915300 3.946300 
-4.243681 18.001606 11.586916 168.118638 -59.523710 -170.950814 -2.735333 2.030916 3.384397 -19.702814 -2.627236 1.475128 -0.461559 4.866297 16.085094 0.794066 -13.873077 6.417076 0.127300 -2.300300 -6.336300 0.041313 -1.106957 0.441190 10.097921 9.944488 -26.337035 -7.448297 -15.910427 51.628455 -0.727349 3.227637 1.951908 -0.118300 2.217300 -6.106700 -5.751549 -6.089559 8.356880 3.342217 -8.571837 1.018790 7.630401 -4.553141 -3.656606 -15.969113 -16.579678 8.493360 11.169599 -34.850446 24.554093 2.681400 -17.607000 15.444200 -6.262045 -1.224824 -0.948303 -84.129662 -8.472376 30.255680 15.513579 -21.429582 -3.556525 -1.405047 -2.059814 5.686451 19.920534 20.693619 8.531700 -7.125000 0.000000 0.000000 -8.350600 54.091900 -1.876100 5.437390 2.124850 -0.568779 81.635517 -3.268408 6.593707 -19.123929 27.647994 -4.939541 0.388904 -0.021765 4.857445 -16.091201 6.182281 -1.817900 7.125000 0.000000 0.000000 7.569100 -23.569700 3.944300 
